<svg id="Layer_1" data-name="Layer 1" xmlns="http://www.w3.org/2000/svg" viewBox="0 0 488 155.4"><defs><style>.cls-1{fill:#fff;}</style></defs><title>logo_white</title><path class="cls-1" d="M100.4,85.7,80.9,42.1h-.1A32.08,32.08,0,0,0,57,23.8a2.37,2.37,0,0,1-1-1.5V15.5c0-2.5,2.3-1.4,2.3-1.4a73.19,73.19,0,0,0,17.1,9.5c18.9,7.5,31.3,8.1,31.3,8.1s-2-22.4-22.5-29C75.5,0,61.2.7,56,7.6V3.2A3.16,3.16,0,0,0,52.8,0H49.6a3.16,3.16,0,0,0-3.2,3.2V21.5A2.58,2.58,0,0,1,44.6,24,32,32,0,0,0,22.5,42l-.4.8L4.1,83.1A18.89,18.89,0,0,0,3,85.6l-.1.2a41.89,41.89,0,0,0-2.9,16,51.6,51.6,0,0,0,103.2,0,45.28,45.28,0,0,0-2.8-16.1ZM52,138.2S19.2,104.7,19.2,86.6a32.8,32.8,0,0,1,65.6,0C84.8,104.7,52,138.2,52,138.2Z"/><path class="cls-1" d="M52,67.2A19.4,19.4,0,1,0,71.4,86.6,19.42,19.42,0,0,0,52,67.2Z"/><path class="cls-1" d="M144.6,69.9a2.54,2.54,0,0,1,1.1-1.2,9.47,9.47,0,0,1,5.2-.2,10,10,0,0,1,3,.9l1.2.5,2-7.3-1-.4A17.14,17.14,0,0,0,152,61a29.45,29.45,0,0,0-4.4-.3,14.17,14.17,0,0,0-5.4.9,8.8,8.8,0,0,0-3.8,2.8,12.21,12.21,0,0,0-2.1,4.6,29,29,0,0,0-.6,6.2v.9h-5.8v7.6h5.8v32.1H144V83.7h9.9V76.1H144c0-1.4,0-2.7.1-3.7A6.18,6.18,0,0,1,144.6,69.9Z"/><path class="cls-1" d="M186.8,110.1c-.1-1.6-.2-3.3-.2-5.1,0-2.5.1-5.2.2-8s.2-5.8.2-8.8a21.52,21.52,0,0,0-.4-4.3,11.16,11.16,0,0,0-1.8-4.2,9.79,9.79,0,0,0-4-3.1,16.19,16.19,0,0,0-6.7-1.1,42.78,42.78,0,0,0-8.1.8,24.31,24.31,0,0,0-7,2.7l-.9.5,2.8,6.7,1.2-.7a11.21,11.21,0,0,1,2.2-1,22.88,22.88,0,0,1,2.8-.8,29.31,29.31,0,0,1,2.9-.5c3.8-.5,6.6,0,7.7,1.1.9.9,1.3,2.6,1.3,4.9,0,.8,0,1.8-.1,2.8h-3.1a45.42,45.42,0,0,0-7.7.6,20.54,20.54,0,0,0-6.2,2,11.31,11.31,0,0,0-4.2,3.9,11.49,11.49,0,0,0-1.5,6.1,11.31,11.31,0,0,0,1,4.9,10.79,10.79,0,0,0,2.6,3.7,12.8,12.8,0,0,0,3.9,2.4,15.1,15.1,0,0,0,4.8.8,16.53,16.53,0,0,0,4.6-.6,16,16,0,0,0,3.5-1.4,13.5,13.5,0,0,0,2.7-2l.7-.7,1.3,4.2h6.8l-.4-1.5a14.27,14.27,0,0,1-.9-4.3ZM178.6,99v4.9a6,6,0,0,1-.9,1.5,6.85,6.85,0,0,1-1.7,1.7,14.64,14.64,0,0,1-2.5,1.3,11.59,11.59,0,0,1-3.4.5,5.72,5.72,0,0,1-4-1.4,4.33,4.33,0,0,1-1.5-3.4,3.79,3.79,0,0,1,.7-2.4,5.24,5.24,0,0,1,2.2-1.6,15.75,15.75,0,0,1,3.6-.9,31.45,31.45,0,0,1,4.4-.3h2.1a3.4,3.4,0,0,0,1,.1Z"/><path class="cls-1" d="M232.7,107.9l-1.4.5a13.12,13.12,0,0,1-2.3.6,12.75,12.75,0,0,1-1.9.1,1.72,1.72,0,0,1-1.6-.7,5,5,0,0,1-.6-3V65.6s.1-3.9-4.8-4.4h-3.5v45.9c0,3.4.9,5.8,2.6,7.3a9.14,9.14,0,0,0,6.3,2.2,19.8,19.8,0,0,0,3.9-.4,12.82,12.82,0,0,0,3.6-1.1l.8-.4Z"/><path class="cls-1" d="M286.5,78.9a9.46,9.46,0,0,0-4.4-2.9,19.6,19.6,0,0,0-5.7-.8,16.52,16.52,0,0,0-7.7,1.7,16.19,16.19,0,0,0-3.9,2.8l-.9-3.5h-6.3v39.7h8.3V89.3a9.88,9.88,0,0,1,3.2-4.6,8.45,8.45,0,0,1,5.8-1.9c2.6,0,4.2.8,5.1,2.4,1,1.8,1.5,4.5,1.5,8.2v22.4h8.3V92.1a34.33,34.33,0,0,0-.8-7.9,11.4,11.4,0,0,0-2.5-5.3Z"/><path class="cls-1" d="M323.1,76.2a33,33,0,0,0-7.5-.7c-6.2,0-11,1.8-14.3,5.3s-4.9,8.7-4.9,15.3c0,6.8,1.3,12,3.8,15.3s6.6,5.2,12,5.2a14.11,14.11,0,0,0,6.6-1.3,10,10,0,0,0,2.4-1.6v.9a20.15,20.15,0,0,1-.4,4.6,5.71,5.71,0,0,1-1.4,2.8,5.13,5.13,0,0,1-2.6,1.5,20.15,20.15,0,0,1-4.8.5,17.79,17.79,0,0,1-5.1-.6c-1.4-.4-2.6-.8-3.7-1.2l-1.2-.5-2.2,7.2.9.4a25.89,25.89,0,0,0,4.9,1.5,37.34,37.34,0,0,0,7.4.6c5.3,0,9.4-1.3,12.2-3.7s4.2-6.4,4.2-11.5V78.1l-.8-.3a36,36,0,0,0-5.5-1.6ZM307.5,86a8.72,8.72,0,0,1,7.1-3,16.86,16.86,0,0,1,6.4,1v18.2a8.9,8.9,0,0,1-2.7,5.2,7.53,7.53,0,0,1-5.2,1.6,7.37,7.37,0,0,1-3.8-.9,7.47,7.47,0,0,1-2.5-2.5,11.67,11.67,0,0,1-1.5-4.1,31.21,31.21,0,0,1-.5-5.5C304.9,91.5,305.8,88.1,307.5,86Z"/><path class="cls-1" d="M376.5,61.1a29.45,29.45,0,0,0-4.4-.3,14.17,14.17,0,0,0-5.4.9,8.8,8.8,0,0,0-3.8,2.8,12.21,12.21,0,0,0-2.1,4.6,29,29,0,0,0-.6,6.2v.9h-5.8v7.6h5.8v32.1h8.3V83.7h9.9V76.1h-9.9c0-1.4,0-2.7.1-3.7a8.5,8.5,0,0,1,.5-2.5,2.54,2.54,0,0,1,1.1-1.2,9.47,9.47,0,0,1,5.2-.2,10,10,0,0,1,3,.9l1.2.5,2-7.3-1-.4a25.23,25.23,0,0,0-4.1-1.1Z"/><path class="cls-1" d="M391.8,77a13.38,13.38,0,0,0-2.5,2.3l-.8-3.2h-6.3v39.7h8.3V88.6a6.93,6.93,0,0,1,1.9-3.7,5.73,5.73,0,0,1,4.3-1.4,11.51,11.51,0,0,1,3.9.7l1.2.4,1.8-8.1-1.1-.3c-4.5-1.3-8.2-1-10.7.8Z"/><path class="cls-1" d="M438.9,109.5c-.1-1.9-.2-3.7-.2-5.5V76.1h-8.3V102c-.4.9-.8,1.8-1.3,2.7a9,9,0,0,1-2,2.3,7,7,0,0,1-2.5,1.5,7.77,7.77,0,0,1-3.1.5,6.39,6.39,0,0,1-3-.6,5.81,5.81,0,0,1-1.8-1.7,8.59,8.59,0,0,1-1-3.3,35.77,35.77,0,0,1-.3-4.9V76.1h-8.3V99.8a34.33,34.33,0,0,0,.8,7.9,12.54,12.54,0,0,0,2.6,5.3,9.69,9.69,0,0,0,4.3,2.9,18.9,18.9,0,0,0,5.6.8,14.21,14.21,0,0,0,8-2.1,17.76,17.76,0,0,0,3.8-3.4l1.2,4.7h6.4l-.3-1.4c-.2-1.5-.4-3.1-.6-5Z"/><path class="cls-1" d="M486.1,107.2l-1.2.5a25.25,25.25,0,0,1-2.9,1,11.93,11.93,0,0,1-2.9.4,2.47,2.47,0,0,1-2.3-1c-.4-.6-.8-1.9-.8-4.9V83.7h10.2V76.1H476V66.6L467.7,69v7.1h-5.8v7.6h5.8v20.6q0,6.45,2.1,9.3c1.5,2,3.9,3.1,7.4,3.1a22.9,22.9,0,0,0,5.4-.6,27.53,27.53,0,0,0,4.6-1.6l.9-.4Z"/><path class="cls-1" d="M451.3,76.1H448v39.7h8.3V80.2C456.2,79.3,455.5,76.4,451.3,76.1Z"/><path class="cls-1" d="M242.5,76.5h-3.3v39.3h8.2V80.5C247.4,79.6,246.7,76.8,242.5,76.5Z"/><path class="cls-1" d="M210.9,107.9l-1.4.5a13.12,13.12,0,0,1-2.3.6,12.75,12.75,0,0,1-1.9.1,1.72,1.72,0,0,1-1.6-.7,5,5,0,0,1-.6-3V65.6s.1-3.9-4.8-4.4h-3.5v45.9c0,3.4.9,5.8,2.6,7.3a9.14,9.14,0,0,0,6.3,2.2,19.8,19.8,0,0,0,3.9-.4,12.82,12.82,0,0,0,3.6-1.1l.8-.4Z"/><path class="cls-1" d="M234.3,64.4a7.17,7.17,0,0,0,1.4,1.3,18.43,18.43,0,0,0,5,2.8,32,32,0,0,0,9.1,2.4s-.6-6.6-6.6-8.5C240.8,61.6,236.5,61.5,234.3,64.4Z"/><path class="cls-1" d="M444.4,64.4a7.17,7.17,0,0,0,1.4,1.3,18.43,18.43,0,0,0,5,2.8,32,32,0,0,0,9.1,2.4s-.6-6.6-6.6-8.5C450.8,61.6,446.5,61.5,444.4,64.4Z"/></svg>