<svg width="149" height="119" viewBox="0 0 149 119" fill="none" xmlns="http://www.w3.org/2000/svg">
<path d="M0 86.5295V17.1585C0.000293255 15.8774 0.395668 14.6257 1.13513 13.565C1.8746 12.5042 2.92424 11.683 4.14868 11.2073L32.9915 0V76.9186L4.52396 89.5061C2.35683 90.3473 0 88.797 0 86.5295Z" fill="#E0E1E2"/>
<path d="M79.1796 89.7384L39.5898 76.9186V0L79.1796 12.8198V89.7384Z" fill="#E0E1E2"/>
<path d="M114.245 0.232358L85.7779 12.8198V63.3901C91.9764 54.8698 102.196 49.5923 114.05 49.5923C115.65 49.5923 117.225 49.699 118.769 49.9056V3.20895C118.769 0.941453 116.413 -0.608939 114.245 0.232358Z" fill="#E0E1E2"/>
<path d="M110.412 81.3746V70.4525H117.688V81.3746H128.601V88.656H117.688V99.5782H110.412V88.656H99.4988V81.3746H110.412Z" fill="#E0E1E2"/>
<path fill-rule="evenodd" clip-rule="evenodd" d="M114.05 55.8897C98.0037 55.8897 84.9476 68.9562 84.9476 85.0153C84.9476 101.074 98.0037 114.141 114.05 114.141C120.507 114.14 126.778 111.976 131.864 107.995L143.856 119L149 113.852L137.008 102.848C140.988 97.7566 143.151 91.4792 143.152 85.0153C143.152 68.9562 130.096 55.8897 114.05 55.8897ZM114.05 106.86C102.013 106.86 92.2232 97.0624 92.2232 85.0153C92.2232 72.9683 102.013 63.1711 114.05 63.1711C126.088 63.1711 135.877 72.9683 135.877 85.0153C135.877 97.0624 126.088 106.86 114.05 106.86Z" fill="#E0E1E2"/>
</svg>
