<svg width="149" height="119" viewBox="0 0 149 119" fill="none" xmlns="http://www.w3.org/2000/svg">
<path d="M0 17.1585V86.5295C0 88.797 2.35683 90.3473 4.52396 89.5061L32.9915 76.9186V0L4.14868 11.2073C2.92424 11.683 1.8746 12.5042 1.13513 13.565C0.395668 14.6257 0.000293255 15.8774 0 17.1585Z" fill="#E0E1E2"/>
<path d="M39.5898 76.9186L79.1796 89.7384V12.8198L39.5898 0V76.9186Z" fill="#E0E1E2"/>
<path d="M114.245 0.232358L85.7779 12.8198V63.3901C91.9764 54.8698 102.196 49.5923 114.05 49.5923C115.65 49.5923 117.225 49.699 118.769 49.9056V3.20895C118.769 0.941453 116.413 -0.608939 114.245 0.232358Z" fill="#E0E1E2"/>
<path d="M121.775 72.1455L114.052 79.8686L106.335 72.1517L101.186 77.3004L108.903 85.0174L101.18 92.7405L106.325 97.8851L114.048 90.162L121.765 97.8789L126.914 92.7302L119.197 85.0133L126.92 77.2902L121.775 72.1455Z" fill="#E0E1E2"/>
<path fill-rule="evenodd" clip-rule="evenodd" d="M84.9476 85.0153C84.9476 68.9562 98.0037 55.8897 114.05 55.8897C130.096 55.8897 143.152 68.9562 143.152 85.0153C143.151 91.4792 140.988 97.7566 137.008 102.848L149 113.852L143.856 119L131.864 107.995C126.778 111.976 120.507 114.14 114.05 114.141C98.0037 114.141 84.9476 101.074 84.9476 85.0153ZM92.2232 85.0153C92.2232 97.0624 102.013 106.86 114.05 106.86C126.088 106.86 135.877 97.0624 135.877 85.0153C135.877 72.9683 126.088 63.1711 114.05 63.1711C102.013 63.1711 92.2232 72.9683 92.2232 85.0153Z" fill="#E0E1E2"/>
</svg>
