<?xml version="1.0" encoding="UTF-8" standalone="no"?>
<!-- Generator: Adobe Illustrator 26.5.2, SVG Export Plug-In . SVG Version: 6.00 Build 0)  -->

<svg
   version="1.1"
   id="Layer_1"
   x="0px"
   y="0px"
   viewBox="0 0 289.1 289.1"
   style="enable-background:new 0 0 289.1 289.1;"
   xml:space="preserve"
   sodipodi:docname="icon.svg"
   inkscape:version="1.2.2 (b0a8486541, 2022-12-01)"
   xmlns:inkscape="http://www.inkscape.org/namespaces/inkscape"
   xmlns:sodipodi="http://sodipodi.sourceforge.net/DTD/sodipodi-0.dtd"
   xmlns="http://www.w3.org/2000/svg"
   xmlns:svg="http://www.w3.org/2000/svg"><defs
   id="defs49">
	
</defs><sodipodi:namedview
   id="namedview47"
   pagecolor="#ffffff"
   bordercolor="#000000"
   borderopacity="0.25"
   inkscape:showpageshadow="2"
   inkscape:pageopacity="0.0"
   inkscape:pagecheckerboard="0"
   inkscape:deskcolor="#d1d1d1"
   showgrid="false"
   inkscape:zoom="2.7153234"
   inkscape:cx="86.17758"
   inkscape:cy="145.28656"
   inkscape:window-width="1452"
   inkscape:window-height="991"
   inkscape:window-x="26"
   inkscape:window-y="23"
   inkscape:window-maximized="0"
   inkscape:current-layer="g42" />
<style
   type="text/css"
   id="style2">
	.st0{opacity:0.3;fill:#CE7200;enable-background:new    ;}
	.st1{fill:url(#SVGID_1_);}
	.st2{fill:url(#SVGID_00000040562022669467177170000008036693316660327844_);}
</style>
<g
   id="g42"
   transform="matrix(1.6509376,0,0,1.6052953,-102.25883,-90.644755)">
		<g
   id="g40"
   transform="matrix(0.87502546,0,0,0.86357422,18.865408,19.731235)">
			<g
   id="g38">
				<path
   class="st0"
   d="M 187.2,154.7 169.9,116 h -0.1 c -3.8,-8.5 -11.6,-14.6 -21,-16.2 -0.6,-0.4 -0.8,-0.9 -1,-1.3 v -6 c 0,-2.3 2.1,-1.2 2.1,-1.2 v 0 c 3.4,2.6 8.3,5.7 15.1,8.5 16.8,6.7 27.8,7.2 27.8,7.2 0,0 -1.8,-19.8 -20,-25.7 -7.7,-2.4 -20.4,-1.8 -25,4.3 v -3.9 c 0,-1.5 -1.2,-2.8 -2.8,-2.8 h -2.9 c -1.5,0 -2.9,1.2 -2.9,2.8 v 2 14.3 c 0,0.4 -0.1,1.8 -1.6,2.3 -8.7,2 -16,7.9 -19.6,16 v 0 l -0.3,0.7 c 0,0 0,0 0,0.1 l -15.9,35.6 c -0.4,0.7 -0.7,1.5 -1,2.2 l -0.1,0.1 v 0 c -1.7,4.2 -2.6,8.9 -2.6,14.3 0,25.3 20.4,45.7 45.7,45.7 25.3,0 45.7,-20.5 45.7,-45.7 0.3,-5.7 -0.7,-10.4 -2.3,-14.6 z m -42.8,46.4 c 0,0 -29,-29.7 -29,-45.7 0,-16 13,-29 29,-29 16,0 29,13 29,29 0,16 -29,45.7 -29,45.7 z"
   id="path4" />
				
					<linearGradient
   id="SVGID_1_"
   gradientUnits="userSpaceOnUse"
   x1="143.7623"
   y1="410.95621"
   x2="143.7623"
   y2="488.64029"
   gradientTransform="translate(0,-316.5197)">
					<stop
   offset="0"
   style="stop-color:#FF8E24"
   id="stop6" />
					<stop
   offset="0.4738"
   style="stop-color:#FF8C23"
   id="stop8" />
					<stop
   offset="0.652"
   style="stop-color:#FF851F"
   id="stop10" />
					<stop
   offset="0.7803"
   style="stop-color:#FF7919"
   id="stop12" />
					<stop
   offset="0.8846"
   style="stop-color:#FF6810"
   id="stop14" />
					<stop
   offset="0.9734"
   style="stop-color:#FF5204"
   id="stop16" />
					<stop
   offset="1"
   style="stop-color:#FF4A00"
   id="stop18" />
				</linearGradient>
				<path
   class="st1"
   d="m 143.8,137.4 c -9.4,0 -17,7.6 -17,17 0,9.4 7.6,17 17,17 9.3,0 17,-7.6 17,-17 -0.1,-9.4 -7.6,-17 -17,-17 z"
   id="path21"
   style="fill:url(#SVGID_1_)" />
				
					<linearGradient
   id="SVGID_00000145778646949776551420000008440220058207651515_"
   gradientUnits="userSpaceOnUse"
   x1="145.0119"
   y1="486.95639"
   x2="145.0119"
   y2="531.41229"
   gradientTransform="translate(0,-316.5197)">
					<stop
   offset="0"
   style="stop-color:#FF8E24"
   id="stop23" />
					<stop
   offset="0.2851"
   style="stop-color:#FF8B22"
   id="stop25" />
					<stop
   offset="0.5094"
   style="stop-color:#FF811D"
   id="stop27" />
					<stop
   offset="0.713"
   style="stop-color:#FF7014"
   id="stop29" />
					<stop
   offset="0.9031"
   style="stop-color:#FF5908"
   id="stop31" />
					<stop
   offset="1"
   style="stop-color:#FF4A00"
   id="stop33" />
				</linearGradient>
				<path
   style="fill:url(#SVGID_00000145778646949776551420000008440220058207651515_)"
   d="M 186.1,153.6 169,115.4 v 0 c -3.8,-8.3 -11.5,-14.4 -20.8,-16 -0.5,-0.4 -0.8,-0.9 -0.9,-1.3 v -6 c 0,-2.2 2.1,-1.2 2.1,-1.2 v 0 c 3.3,2.6 8.2,5.7 14.9,8.3 16.5,6.6 27.4,7.1 27.4,7.1 0,0 -1.7,-19.5 -19.7,-25.4 -7.6,-2.4 -20.2,-1.8 -24.7,4.2 v -3.8 c 0,-1.5 -1.2,-2.8 -2.8,-2.8 h -2.8 c -1.5,0 -2.8,1.2 -2.8,2.8 v 1.9 14.1 c 0,0.4 -0.1,1.8 -1.6,2.2 -8.6,1.9 -15.7,7.9 -19.3,15.7 v 0 l -0.3,0.7 c 0,0 0,0 0,0.1 L 102,151.1 c -0.4,0.7 -0.7,1.5 -1,2.2 l -0.1,0.1 v 0 c -1.6,4.1 -2.6,8.8 -2.6,14 0,24.9 20.2,45.1 45.1,45.1 24.9,0 45.2,-20.2 45.2,-45.1 0,-4.9 -0.9,-9.6 -2.5,-13.8 z m -42.3,46 c 0,0 -28.7,-29.3 -28.7,-45.2 0,-15.9 12.9,-28.7 28.7,-28.7 15.9,0 28.7,12.9 28.7,28.7 0,15.9 -28.7,45.2 -28.7,45.2 z"
   id="path36" />
			</g>
		</g>
	</g>
</svg>
