<!-- <svg xmlns="http://www.w3.org/2000/svg" stroke="#14171a" stroke-width="0.7" width="30" height="30" viewBox="0 0 24 24" fill="#14171a">
  <path  d="M 13.308 10.882 L 19.751 3.395 L 18.224 3.395 L 12.63 9.897 L 8.162 3.395 L 3.008 3.395 L 9.764 13.228 L 3.008 21.08 L 4.534 21.08 L 10.442 14.213 L 15.161 21.08 L 20.314 21.08 L 13.308 10.882 Z M 11.215 13.314 L 10.531 12.334 L 5.086 4.543 L 7.43 4.543 L 11.826 10.83 L 12.51 11.811 L 18.225 19.983 L 15.879 19.983 L 11.215 13.314 Z"></path>
</svg> -->

<svg xmlns="http://www.w3.org/2000/svg" height="14" width="12.25" viewBox="0 0 448 512">
<path fill="#000000" d="M64 32C28.7 32 0 60.7 0 96V416c0 35.3 28.7 64 64 64H384c35.3 0 64-28.7 64-64V96c0-35.3-28.7-64-64-64H64zm297.1 84L257.3 234.6 379.4 396H283.8L209 298.1 123.3 396H75.8l111-126.9L69.7 116h98l67.7 89.5L313.6 116h47.5zM323.3 367.6L153.4 142.9H125.1L296.9 367.6h26.3z"/></svg>