<svg width="44" height="57" viewBox="0 0 44 57" fill="none" xmlns="http://www.w3.org/2000/svg">
<path d="M19.739 55.0386C3.09031 30.9028 0 30.8702 0 22C0 9.8497 9.8497 0 22 0C34.1503 0 44 9.8497 44 22C44 30.8702 40.9097 30.9028 24.261 55.0386C23.1684 56.6168 20.8315 56.6167 19.739 55.0386ZM22 31.1667C27.0626 31.1667 31.1667 27.0626 31.1667 22C31.1667 16.9374 27.0626 12.8333 22 12.8333C16.9374 12.8333 12.8333 16.9374 12.8333 22C12.8333 27.0626 16.9374 31.1667 22 31.1667Z" fill="#4183C4"/>
</svg>
