<?xml version="1.0" encoding="utf-8"?>
<!-- Generator: Adobe Illustrator 23.0.3, SVG Export Plug-In . SVG Version: 6.00 Build 0)  -->
<svg version="1.1" id="Layer_1" xmlns="http://www.w3.org/2000/svg" xmlns:xlink="http://www.w3.org/1999/xlink" x="0px" y="0px"
	 viewBox="0 0 155 155.4" style="enable-background:new 0 0 155 155.4;" xml:space="preserve">
<style type="text/css">
	.st0{fill:#FFFFFF;}
</style>
<title>logo_white</title>
<g>
	<path class="st0" d="M124.6,86.7l-19.5-43.6H105c-4.4-9.7-13.3-16.5-23.8-18.3c-0.5-0.3-0.9-0.9-1-1.5v-6.8c0-2.5,2.3-1.4,2.3-1.4
		c5.2,3.9,11,7.1,17.1,9.5c18.9,7.5,31.3,8.1,31.3,8.1s-2-22.4-22.5-29c-8.7-2.7-23-2-28.2,4.9V4.2C80.2,2.5,78.8,1,77,1
		C77,1,77,1,77,1h-3.2c-1.7,0-3.2,1.4-3.2,3.1c0,0,0,0.1,0,0.1v18.3c0,1.1-0.7,2.2-1.8,2.5c-9.8,2.2-18,8.9-22.1,18l-0.4,0.8
		l-18,40.3c-0.4,0.8-0.8,1.6-1.1,2.5l-0.1,0.2c-2,5.1-3,10.5-2.9,16c0,28.5,23.1,51.6,51.6,51.6s51.6-23.1,51.6-51.6
		C127.4,97.3,126.5,91.9,124.6,86.7z M76.2,139.2c0,0-32.8-33.5-32.8-51.6c0-18.1,14.7-32.8,32.8-32.8S109,69.5,109,87.6
		C109,105.7,76.2,139.2,76.2,139.2z"/>
	<path class="st0" d="M76.2,68.2c-10.7,0-19.4,8.7-19.4,19.4S65.4,107,76.2,107s19.4-8.7,19.4-19.4C95.5,76.9,86.9,68.2,76.2,68.2z"
		/>
</g>
</svg>
